<?xml version='1.0' encoding='utf-8'?>
<!DOCTYPE svg PUBLIC '-//W3C//DTD SVG 1.1//EN' 'http://www.w3.org/Graphics/SVG/1.1/DTD/svg11.dtd'>
<svg width="64" version="1.1" xmlns="http://www.w3.org/2000/svg" height="64" viewBox="0 0 64 64" xmlns:xlink="http://www.w3.org/1999/xlink" enable-background="new 0 0 64 64">
  <g>
    <g fill="#1D1D1B">
      <path d="m25.896,52.205c6.375,0 12.204-2.344 16.706-6.196l17.357,17.356c0.394,0.392 0.906,0.588 1.42,0.588 0.513,0 1.025-0.196 1.416-0.588 0.394-0.393 0.589-0.904 0.589-1.418s-0.195-1.026-0.589-1.418l-17.358-17.357c3.854-4.5 6.198-10.331 6.198-16.707 0-14.195-11.546-25.741-25.739-25.741-14.194,0-25.742,11.546-25.742,25.741-0.001,14.193 11.547,25.74 25.742,25.74zm0-47.471c11.979-1.77636e-15 21.729,9.748 21.729,21.73 0,11.981-9.75,21.729-21.729,21.729-11.983,0-21.731-9.747-21.731-21.729-0.001-11.982 9.747-21.73 21.731-21.73z"/>
      <path d="m18.15,28.471h5.041v5.041c0,1.107 0.898,2.005 2.006,2.005 1.109,0 2.006-0.897 2.006-2.005v-5.041h5.043c1.108,0 2.004-0.898 2.004-2.006s-0.896-2.006-2.004-2.006h-5.043v-5.042c0-1.108-0.896-2.005-2.006-2.005-1.107,0-2.006,0.896-2.006,2.005v5.042h-5.041c-1.107,0-2.006,0.898-2.006,2.006s0.899,2.006 2.006,2.006z"/>
    </g>
  </g>
</svg>
