<?xml version='1.0' encoding='utf-8'?>
<!DOCTYPE svg PUBLIC '-//W3C//DTD SVG 1.1//EN' 'http://www.w3.org/Graphics/SVG/1.1/DTD/svg11.dtd'>
<svg width="64" version="1.1" xmlns="http://www.w3.org/2000/svg" height="64" viewBox="0 0 64 64" xmlns:xlink="http://www.w3.org/1999/xlink" enable-background="new 0 0 64 64">
  <g>
    <g fill="#1D1D1B">
      <path d="m26.396,52.15c6.404,0 12.26-2.354 16.783-6.225l17.439,17.438c0.393,0.393 0.908,0.59 1.424,0.59s1.031-0.197 1.426-0.59c0.393-0.395 0.59-0.91 0.59-1.425 0-0.516-0.197-1.031-0.59-1.425l-17.439-17.437c3.872-4.522 6.226-10.38 6.226-16.786 0-14.261-11.599-25.861-25.858-25.861-14.261,0-25.861,11.601-25.861,25.861s11.6,25.86 25.86,25.86zm0-47.691c12.036,3.55271e-15 21.828,9.793 21.828,21.831s-9.792,21.831-21.828,21.831c-12.039,0-21.831-9.793-21.831-21.831s9.792-21.831 21.831-21.831z"/>
      <path d="m19.23,28.305h14.16c1.114,0 2.016-0.902 2.016-2.015s-0.901-2.015-2.016-2.015h-14.16c-1.114,0-2.016,0.902-2.016,2.015s0.902,2.015 2.016,2.015z"/>
    </g>
  </g>
</svg>
